<svg width="52" height="52" viewBox="0 0 52 52" fill="none" xmlns="http://www.w3.org/2000/svg">
<mask id="mask0_4561_2842" style="mask-type:alpha" maskUnits="userSpaceOnUse" x="0" y="0" width="52" height="52">
<rect width="52" height="52" fill="#D9D9D9"/>
</mask>
<g mask="url(#mask0_4561_2842)">
<path d="M17.3333 34.6667C17.9472 34.6667 18.4618 34.4591 18.8771 34.0438C19.2924 33.6285 19.5 33.1139 19.5 32.5V10.8334C19.5 10.2195 19.2924 9.7049 18.8771 9.28962C18.4618 8.87435 17.9472 8.66671 17.3333 8.66671C16.7194 8.66671 16.2049 8.87435 15.7896 9.28962C15.3743 9.7049 15.1667 10.2195 15.1667 10.8334V32.5C15.1667 33.1139 15.3743 33.6285 15.7896 34.0438C16.2049 34.4591 16.7194 34.6667 17.3333 34.6667ZM13 47.6667C11.1944 47.6667 9.65972 47.0348 8.39583 45.7709C7.13194 44.507 6.5 42.9723 6.5 41.1667V10.8334C6.5 9.02782 7.13194 7.4931 8.39583 6.22921C9.65972 4.96532 11.1944 4.33337 13 4.33337H32.5C33.6917 4.33337 34.7118 4.75768 35.5604 5.60629C36.409 6.4549 36.8333 7.47504 36.8333 8.66671V34.6667C36.8333 35.8584 36.409 36.8785 35.5604 37.7271C34.7118 38.5757 33.6917 39 32.5 39H13C12.3861 39 11.8715 39.2077 11.4563 39.623C11.041 40.0382 10.8333 40.5528 10.8333 41.1667C10.8333 41.7806 11.041 42.2952 11.4563 42.7105C11.8715 43.1257 12.3861 43.3334 13 43.3334H41.1667V10.8334C41.1667 10.2195 41.3743 9.7049 41.7896 9.28962C42.2049 8.87435 42.7194 8.66671 43.3333 8.66671C43.9472 8.66671 44.4618 8.87435 44.8771 9.28962C45.2924 9.7049 45.5 10.2195 45.5 10.8334V43.3334C45.5 44.525 45.0757 45.5452 44.2271 46.3938C43.3785 47.2424 42.3583 47.6667 41.1667 47.6667H13Z" fill="white"/>
</g>
</svg>
