<?xml version="1.0" encoding="UTF-8"?>
<svg id="Layer_2" data-name="Layer 2" xmlns="http://www.w3.org/2000/svg" viewBox="0 0 47.66 47.66">
  <defs>
    <style>
      .cls-1 {
        fill: #fff;
      }
    </style>
  </defs>
  <g id="ELEMENTS">
    <g>
      <circle cx="23.83" cy="23.83" r="23.83"/>
      <g>
        <path class="cls-1" d="M22.88,16.24v15.19c0,.12-.1.22-.22.22h-3.53c-.12,0-.22-.1-.22-.22v-5.61h-3.8v5.61c0,.12-.1.22-.21.22h-3.53c-.12,0-.22-.1-.22-.22v-15.19c0-.12.1-.22.22-.22h3.53c.12,0,.22.1.22.22v5.61h3.81v-5.61c0-.12.1-.21.21-.21h3.53c.12,0,.22.1.22.22Z"/>
        <path class="cls-1" d="M36.51,16.24v15.19c0,.12-.09.22-.21.22h-11.31c-.12,0-.22-.1-.22-.22v-15.19c0-.12.1-.21.22-.21h11.3c.12,0,.22.1.22.22Z"/>
      </g>
    </g>
  </g>
</svg>